# xmcd CD database file
#
# Track frame offsets:
#	150
#	20790
#	46492
#	63367
#	69877
#	83555
#	106300
#	124905
#	147580
#	166755
#	167250
#	172367
#	197017
#	211162
#
# Disc length: 3061 seconds
#
# Revision: 1
# Processed by: cddbd v1.5PL3 Copyright (c) Steve Scherf et al.
# Submitted via: CDex 1.50beta9
#
DISCID=c10bf30e
DTITLE=真心ブラザーズ - あさっての方向
DYEAR=1991
DGENRE=Japanese Rock
TTITLE0=あんなに好きだったのに
TTITLE1=君よりもっとこそくに
TTITLE2=ウジ虫以下
TTITLE3=みんなテキトー
TTITLE4=軽はずみ
TTITLE5=二人のりでいこう
TTITLE6=おぼろげな春
TTITLE7=赤いラジカセ
TTITLE8=スレ
TTITLE9=夜のお供に真心ブラザーズ
TTITLE10=腹八分目で医者いらず
TTITLE11=Gotta Poison
TTITLE12=うきうき
TTITLE13=待ち合わせ
EXTD=YEAR: 1991
EXTT0=
EXTT1=
EXTT2=
EXTT3=
EXTT4=
EXTT5=
EXTT6=
EXTT7=
EXTT8=
EXTT9=
EXTT10=
EXTT11=
EXTT12=
EXTT13=
PLAYORDER=
